<svg width="48" height="48" viewBox="0 0 48 48" fill="none" xmlns="http://www.w3.org/2000/svg">
<path d="M0 8C0 3.58172 3.58172 0 8 0H40C44.4183 0 48 3.58172 48 8V40C48 44.4183 44.4183 48 40 48H8C3.58172 48 0 44.4183 0 40V8Z" fill="#E8E7FF"/>
<path d="M34.1055 27.2272V26.7287C34.1055 26.3501 34.1855 26.0023 34.3455 25.6853C34.5086 25.3653 34.7441 25.1098 35.0518 24.919C35.3627 24.7251 35.7412 24.6282 36.1875 24.6282C36.6399 24.6282 37.02 24.7236 37.3278 24.9144C37.6386 25.1052 37.8725 25.3606 38.0295 25.6807C38.1895 25.9977 38.2695 26.347 38.2695 26.7287V27.2272C38.2695 27.6058 38.1895 27.9551 38.0295 28.2752C37.8694 28.5922 37.634 28.8461 37.3231 29.0369C37.0123 29.2308 36.6337 29.3277 36.1875 29.3277C35.7351 29.3277 35.355 29.2308 35.0472 29.0369C34.7395 28.8461 34.5056 28.5922 34.3455 28.2752C34.1855 27.9551 34.1055 27.6058 34.1055 27.2272ZM35.4489 26.7287V27.2272C35.4489 27.4458 35.5012 27.652 35.6058 27.8458C35.7135 28.0397 35.9074 28.1367 36.1875 28.1367C36.4676 28.1367 36.6584 28.0413 36.7599 27.8505C36.8646 27.6596 36.9169 27.4519 36.9169 27.2272V26.7287C36.9169 26.504 36.8677 26.2947 36.7692 26.1008C36.6707 25.9069 36.4768 25.81 36.1875 25.81C35.9105 25.81 35.7181 25.9069 35.6104 26.1008C35.5027 26.2947 35.4489 26.504 35.4489 26.7287ZM29.2535 21.8167V21.3181C29.2535 20.9365 29.3351 20.5872 29.4982 20.2702C29.6613 19.9501 29.8968 19.6947 30.2045 19.5039C30.5154 19.3131 30.8909 19.2177 31.331 19.2177C31.7864 19.2177 32.1681 19.3131 32.4758 19.5039C32.7836 19.6947 33.0175 19.9501 33.1775 20.2702C33.3376 20.5872 33.4176 20.9365 33.4176 21.3181V21.8167C33.4176 22.1984 33.336 22.5477 33.1729 22.8647C33.0129 23.1817 32.7775 23.4356 32.4666 23.6264C32.1588 23.8141 31.7803 23.908 31.331 23.908C30.8816 23.908 30.5015 23.8126 30.1907 23.6218C29.8829 23.4279 29.649 23.174 29.489 22.8601C29.332 22.5431 29.2535 22.1953 29.2535 21.8167ZM30.6062 21.3181V21.8167C30.6062 22.0414 30.6585 22.2491 30.7631 22.44C30.8708 22.6308 31.0601 22.7262 31.331 22.7262C31.6141 22.7262 31.8065 22.6308 31.908 22.44C32.0127 22.2491 32.065 22.0414 32.065 21.8167V21.3181C32.065 21.0935 32.0157 20.8842 31.9172 20.6903C31.8188 20.4964 31.6233 20.3995 31.331 20.3995C31.057 20.3995 30.8678 20.498 30.7631 20.6949C30.6585 20.8919 30.6062 21.0996 30.6062 21.3181ZM29.8629 29L36.3629 19.5454H37.5724L31.0724 29H29.8629Z" fill="#7526DA"/>
<path d="M23.2692 19.4162C23.7555 19.4162 24.2233 19.4977 24.6726 19.6609C25.125 19.824 25.5282 20.084 25.8821 20.441C26.2391 20.7981 26.5207 21.272 26.7269 21.8629C26.9362 22.4508 27.0424 23.1725 27.0455 24.028C27.0455 24.8313 26.9547 25.5484 26.7731 26.1793C26.5946 26.8072 26.3376 27.3411 26.0022 27.7812C25.6667 28.2213 25.262 28.5568 24.788 28.7876C24.3141 29.0154 23.7847 29.1293 23.2 29.1293C22.569 29.1293 22.012 29.0077 21.5288 28.7646C21.0456 28.5183 20.6563 28.1844 20.3608 27.7628C20.0684 27.3381 19.8915 26.861 19.8299 26.3317H21.8012C21.8781 26.6764 22.0397 26.9441 22.2859 27.1349C22.5321 27.3227 22.8368 27.4165 23.2 27.4165C23.8155 27.4165 24.2833 27.1488 24.6034 26.6133C24.9234 26.0747 25.085 25.3376 25.0881 24.402H25.0235C24.8819 24.679 24.6911 24.9175 24.451 25.1175C24.211 25.3145 23.9355 25.4668 23.6247 25.5746C23.3169 25.6823 22.9891 25.7361 22.6414 25.7361C22.0843 25.7361 21.5873 25.6053 21.1502 25.3437C20.7132 25.0821 20.3685 24.7221 20.1161 24.2635C19.8638 23.8049 19.7376 23.2817 19.7376 22.6939C19.7345 22.0599 19.8807 21.4951 20.1762 20.9996C20.4716 20.5041 20.884 20.1164 21.4134 19.8363C21.9458 19.5531 22.5644 19.4131 23.2692 19.4162ZM23.2831 20.9858C22.9722 20.9858 22.6952 21.0597 22.4521 21.2074C22.212 21.3551 22.0212 21.5536 21.8796 21.8029C21.7411 22.0522 21.6734 22.3307 21.6765 22.6385C21.6765 22.9493 21.7442 23.2294 21.8796 23.4787C22.0181 23.7249 22.2059 23.9219 22.4429 24.0696C22.6829 24.2142 22.9568 24.2866 23.2646 24.2866C23.4954 24.2866 23.7093 24.2435 23.9063 24.1573C24.1032 24.0711 24.2741 23.9526 24.4187 23.8018C24.5664 23.648 24.6818 23.471 24.7649 23.2709C24.848 23.0709 24.8896 22.8585 24.8896 22.6339C24.8865 22.3353 24.8157 22.0614 24.6772 21.8121C24.5387 21.5628 24.3479 21.3628 24.1048 21.212C23.8617 21.0612 23.5877 20.9858 23.2831 20.9858Z" fill="#7526DA"/>
<path d="M14.1872 19.4162C14.6734 19.4162 15.1412 19.4977 15.5906 19.6609C16.043 19.824 16.4462 20.084 16.8001 20.441C17.1571 20.7981 17.4387 21.272 17.6449 21.8629C17.8542 22.4508 17.9604 23.1725 17.9634 24.028C17.9634 24.8313 17.8727 25.5484 17.6911 26.1793C17.5126 26.8072 17.2556 27.3411 16.9201 27.7812C16.5847 28.2213 16.1799 28.5568 15.706 28.7876C15.232 29.0154 14.7027 29.1293 14.1179 29.1293C13.487 29.1293 12.9299 29.0077 12.4468 28.7646C11.9636 28.5183 11.5742 28.1844 11.2788 27.7628C10.9864 27.3381 10.8094 26.861 10.7479 26.3317H12.7191C12.7961 26.6764 12.9576 26.9441 13.2039 27.1349C13.4501 27.3227 13.7548 27.4165 14.1179 27.4165C14.7335 27.4165 15.2013 27.1488 15.5213 26.6133C15.8414 26.0747 16.003 25.3376 16.0061 24.402H15.9414C15.7999 24.679 15.609 24.9175 15.369 25.1175C15.1289 25.3145 14.8535 25.4668 14.5426 25.5746C14.2349 25.6823 13.9071 25.7361 13.5593 25.7361C13.0023 25.7361 12.5052 25.6053 12.0682 25.3437C11.6312 25.0821 11.2865 24.7221 11.0341 24.2635C10.7817 23.8049 10.6556 23.2817 10.6556 22.6939C10.6525 22.0599 10.7987 21.4951 11.0941 20.9996C11.3896 20.5041 11.802 20.1164 12.3313 19.8363C12.8638 19.5531 13.4824 19.4131 14.1872 19.4162ZM14.201 20.9858C13.8902 20.9858 13.6132 21.0597 13.3701 21.2074C13.13 21.3551 12.9392 21.5536 12.7976 21.8029C12.6591 22.0522 12.5914 22.3307 12.5945 22.6385C12.5945 22.9493 12.6622 23.2294 12.7976 23.4787C12.9361 23.7249 13.1238 23.9219 13.3608 24.0696C13.6009 24.2142 13.8748 24.2866 14.1826 24.2866C14.4134 24.2866 14.6273 24.2435 14.8242 24.1573C15.0212 24.0711 15.192 23.9526 15.3367 23.8018C15.4844 23.648 15.5998 23.471 15.6829 23.2709C15.766 23.0709 15.8076 22.8585 15.8076 22.6339C15.8045 22.3353 15.7337 22.0614 15.5952 21.8121C15.4567 21.5628 15.2659 21.3628 15.0228 21.212C14.7796 21.0612 14.5057 20.9858 14.201 20.9858Z" fill="#7526DA"/>
</svg>
