<svg width="48" height="48" viewBox="0 0 48 48" fill="none" xmlns="http://www.w3.org/2000/svg">
<path d="M0 8C0 3.58172 3.58172 0 8 0H40C44.4183 0 48 3.58172 48 8V40C48 44.4183 44.4183 48 40 48H8C3.58172 48 0 44.4183 0 40V8Z" fill="#E8E7FF"/>
<path d="M24 36C30.6275 36 36 30.6275 36 24C36 17.3726 30.6275 12 24 12C17.3726 12 12 17.3726 12 24C12 30.6275 17.3726 36 24 36Z" stroke="#7526DA" stroke-width="1.5" stroke-linecap="round" stroke-linejoin="round"/>
<path d="M12.9229 28.6153H16.1536C17.0105 28.6153 17.8322 28.2749 18.4381 27.669C19.044 27.0632 19.3844 26.2414 19.3844 25.3845V22.6153C19.3844 21.7585 19.7248 20.9367 20.3307 20.3308C20.9365 19.7249 21.7583 19.3845 22.6152 19.3845C23.472 19.3845 24.2938 19.0441 24.8997 18.4383C25.5056 17.8324 25.8459 17.0106 25.8459 16.1538V12.1292" stroke="#7526DA" stroke-width="1.5" stroke-linecap="round" stroke-linejoin="round"/>
<path d="M36 23.8154C35.0757 23.3358 34.0507 23.0826 33.0093 23.0769H29.077C28.2201 23.0769 27.3983 23.4173 26.7925 24.0232C26.1866 24.6291 25.8462 25.4508 25.8462 26.3077C25.8462 27.1645 26.1866 27.9863 26.7925 28.5922C27.3983 29.1981 28.2201 29.5384 29.077 29.5384C29.689 29.5384 30.276 29.7816 30.7088 30.2143C31.1415 30.6471 31.3847 31.2341 31.3847 31.8461V33.4523" stroke="#7526DA" stroke-width="1.5" stroke-linecap="round" stroke-linejoin="round"/>
</svg>
