<svg width="48" height="48" viewBox="0 0 48 48" fill="none" xmlns="http://www.w3.org/2000/svg">
<path d="M0 8C0 3.58172 3.58172 0 8 0H40C44.4183 0 48 3.58172 48 8V40C48 44.4183 44.4183 48 40 48H8C3.58172 48 0 44.4183 0 40V8Z" fill="#E8E7FF"/>
<path d="M32.1617 21.3854C35.5903 26.2136 32.9675 31.7438 31.6989 33.9011C31.5129 34.2028 31.2629 34.4603 30.9669 34.6555C30.6707 34.8506 30.3355 34.9789 29.9846 35.031C27.4988 35.459 21.3103 35.9385 17.9846 31.1102C14.7103 26.556 14.8474 18.5433 15.1388 14.7253C15.1503 14.4408 15.2293 14.1631 15.3692 13.9151C15.5092 13.6671 15.7061 13.4558 15.9438 13.2987C16.1815 13.1415 16.4531 13.043 16.7364 13.0112C17.0197 12.9795 17.3064 13.0153 17.5731 13.1159C21.2588 14.1774 28.9388 16.8312 32.1617 21.3854Z" stroke="#7526DA" stroke-width="1.5" stroke-linecap="round" stroke-linejoin="round"/>
<path d="M20.6074 19.7931C24.534 24.4146 27.9803 29.4225 30.8932 34.7399" stroke="#7526DA" stroke-width="1.5" stroke-linecap="round" stroke-linejoin="round"/>
</svg>
