<svg width="48" height="48" viewBox="0 0 48 48" fill="none" xmlns="http://www.w3.org/2000/svg">
<path d="M0 8C0 3.58172 3.58172 0 8 0H40C44.4183 0 48 3.58172 48 8V40C48 44.4183 44.4183 48 40 48H8C3.58172 48 0 44.4183 0 40V8Z" fill="#E8E7FF"/>
<g clip-path="url(#clip0_786_19201)">
<path d="M28.2857 19.7143V14.5714C28.2857 13.6377 27.5052 12.8571 26.5715 12.8571H14.5715C13.6377 12.8571 12.8572 13.6377 12.8572 14.5714V26.5714C12.8572 27.5051 13.6377 28.2857 14.5715 28.2857H19.7143" stroke="#7526DA" stroke-width="1.5" stroke-linecap="round" stroke-linejoin="round"/>
<path d="M35.1429 33.4285C35.1429 34.3753 34.3754 35.1428 33.4286 35.1428" stroke="#7526DA" stroke-width="1.5" stroke-linecap="round" stroke-linejoin="round"/>
<path d="M19.7144 21.4285C19.7144 20.4818 20.4819 19.7142 21.4286 19.7142" stroke="#7526DA" stroke-width="1.5" stroke-linecap="round" stroke-linejoin="round"/>
<path d="M33.4286 19.7142C34.3754 19.7142 35.1429 20.4818 35.1429 21.4285" stroke="#7526DA" stroke-width="1.5" stroke-linecap="round" stroke-linejoin="round"/>
<path d="M19.7144 33.4285C19.7144 34.3753 20.4819 35.1428 21.4286 35.1428" stroke="#7526DA" stroke-width="1.5" stroke-linecap="round" stroke-linejoin="round"/>
<path d="M35.1429 25.7142V29.1428" stroke="#7526DA" stroke-width="1.5" stroke-linecap="round" stroke-linejoin="round"/>
<path d="M19.7144 29.1428V25.7142" stroke="#7526DA" stroke-width="1.5" stroke-linecap="round" stroke-linejoin="round"/>
<path d="M25.7144 19.7142H29.1429" stroke="#7526DA" stroke-width="1.5" stroke-linecap="round" stroke-linejoin="round"/>
<path d="M25.7144 35.1428H29.1429" stroke="#7526DA" stroke-width="1.5" stroke-linecap="round" stroke-linejoin="round"/>
</g>
<defs>
<clipPath id="clip0_786_19201">
<rect width="24" height="24" fill="white" transform="translate(12 12)"/>
</clipPath>
</defs>
</svg>
