<svg width="48" height="48" viewBox="0 0 48 48" fill="none" xmlns="http://www.w3.org/2000/svg">
<path d="M0 8C0 3.58172 3.58172 0 8 0H40C44.4183 0 48 3.58172 48 8V40C48 44.4183 44.4183 48 40 48H8C3.58172 48 0 44.4183 0 40V8Z" fill="#E8E7FF"/>
<path d="M22.9545 18.4821C22.8792 18.2692 22.7631 18.0756 22.6155 17.9107C22.3016 17.5599 21.8455 17.3392 21.3378 17.3392H20.0108C19.1657 17.3392 18.4806 18.0243 18.4806 18.8695C18.4806 19.5886 18.9813 20.2107 19.6838 20.3644L21.7041 20.8063C22.4911 20.9785 23.052 21.6759 23.052 22.4815C23.052 23.4283 22.2845 24.1964 21.3378 24.1964H20.1949C19.4485 24.1964 18.8135 23.7194 18.5781 23.0535" stroke="#7526DA" stroke-width="1.5" stroke-linecap="round" stroke-linejoin="round"/>
<path d="M20.7664 17.3393V15.625" stroke="#7526DA" stroke-width="1.5" stroke-linecap="round" stroke-linejoin="round"/>
<path d="M20.7664 25.9107V24.1964" stroke="#7526DA" stroke-width="1.5" stroke-linecap="round" stroke-linejoin="round"/>
<path d="M24.0358 35.2816V26.2815C24.0358 25.7132 24.2615 25.1682 24.6634 24.7663C25.0653 24.3644 25.6103 24.1387 26.1786 24.1387C26.7469 24.1387 27.292 24.3644 27.6938 24.7663C28.0957 25.1682 28.3215 25.7132 28.3215 26.2815V30.9959H31.7501C32.6594 30.9959 33.5315 31.3571 34.1745 32.0001C34.8173 32.6429 35.1787 33.515 35.1787 34.4244V35.2816" stroke="#7526DA" stroke-width="1.5" stroke-linecap="round" stroke-linejoin="round"/>
<path d="M20.7679 28.5357C16.4778 28.5357 13 25.0579 13 20.7679C13 16.4778 16.4778 13 20.7679 13C25.0579 13 28.5357 16.4778 28.5357 20.7679C28.5357 21.1285 28.5111 21.4834 28.4636 21.831" stroke="#7526DA" stroke-width="1.5" stroke-linecap="round"/>
</svg>
