<svg width="48" height="48" viewBox="0 0 48 48" fill="none" xmlns="http://www.w3.org/2000/svg">
<path d="M0 8C0 3.58172 3.58172 0 8 0H40C44.4183 0 48 3.58172 48 8V40C48 44.4183 44.4183 48 40 48H8C3.58172 48 0 44.4183 0 40V8Z" fill="#E8E7FF"/>
<path d="M35.0935 18.3029C35.0604 18.1233 34.99 17.9526 34.8866 17.802C34.7832 17.6514 34.6493 17.5242 34.4935 17.4286L31.0649 20.8572C30.905 21.0231 30.7133 21.1551 30.5013 21.2452C30.2892 21.3354 30.061 21.3818 29.8306 21.3818C29.6002 21.3818 29.3722 21.3354 29.1601 21.2452C28.948 21.1551 28.7563 21.0231 28.5964 20.8572L27.2935 19.6915C26.9794 19.3711 26.8035 18.9402 26.8035 18.4915C26.8035 18.0428 26.9794 17.612 27.2935 17.2915L30.7221 13.8629C30.6473 13.6873 30.5349 13.5302 30.3928 13.4028C30.2505 13.2754 30.0821 13.1809 29.8992 13.1258C28.703 12.8872 27.4638 12.9893 26.3227 13.4205C25.1816 13.8517 24.1845 14.5946 23.4449 15.5646C22.7053 16.5347 22.2529 17.6929 22.1393 18.9074C22.0328 20.0451 22.2276 21.1894 22.7022 22.2259L13.5021 31.4259C12.823 32.1051 12.8342 33.2096 13.5271 33.8748L14.4884 34.7977C15.1589 35.4415 16.2203 35.4336 16.8812 34.7797L26.1869 25.5749C27.1934 25.9905 28.2897 26.1486 29.3762 26.0322C30.5774 25.9034 31.7194 25.4439 32.6752 24.7049C33.631 23.9659 34.363 22.9762 34.7899 21.846C35.2169 20.7158 35.322 19.4893 35.0935 18.3029Z" stroke="#7526DA" stroke-width="1.5" stroke-linecap="round" stroke-linejoin="round"/>
</svg>
