<svg width="88" height="17" viewBox="0 0 88 17" fill="none" xmlns="http://www.w3.org/2000/svg">
<path d="M0.333344 0.0786133H16.6458V16.4079H0.333344V0.0786133ZM18.0052 0.0786133H34.3177V16.4079H18.0052V0.0786133ZM35.6771 0.0786133H51.9896V16.4079H35.6771V0.0786133ZM53.349 0.0786133H69.6615V16.4079H53.349V0.0786133ZM71.0208 0.0786133H87.3333V16.4079H71.0208V0.0786133Z" fill="#00B67A"/>
<path d="M8.48959 11.0839L10.9704 10.4546L12.007 13.6524L8.48959 11.0839ZM14.199 6.95058H9.83197L8.48959 2.83423L7.1472 6.95058H2.78021L6.31459 9.50203L4.9722 13.6184L8.50658 11.0669L10.6816 9.50203L14.199 6.95058ZM26.1615 11.0839L28.6423 10.4546L29.6788 13.6524L26.1615 11.0839ZM31.8708 6.95058H27.5038L26.1615 2.83423L24.8191 6.95058H20.4521L23.9865 9.50203L22.6441 13.6184L26.1785 11.0669L28.3535 9.50203L31.8708 6.95058ZM43.8333 11.0839L46.3142 10.4546L47.3507 13.6524L43.8333 11.0839ZM49.5427 6.95058H45.1757L43.8333 2.83423L42.491 6.95058H38.124L41.6583 9.50203L40.316 13.6184L43.8503 11.0669L46.0253 9.50203L49.5427 6.95058ZM61.5052 11.0839L63.9861 10.4546L65.0226 13.6524L61.5052 11.0839ZM67.2146 6.95058H62.8476L61.5052 2.83423L60.1628 6.95058H55.7958L59.3302 9.50203L57.9878 13.6184L61.5222 11.0669L63.6972 9.50203L67.2146 6.95058ZM79.1771 11.0839L81.658 10.4546L82.6945 13.6524L79.1771 11.0839ZM84.8865 6.95058H80.5195L79.1771 2.83423L77.8347 6.95058H73.4677L77.0021 9.50203L75.6597 13.6184L79.1941 11.0669L81.3691 9.50203L84.8865 6.95058Z" fill="white"/>
</svg>
