<svg width="48" height="48" viewBox="0 0 48 48" fill="none" xmlns="http://www.w3.org/2000/svg">
<path d="M0 8C0 3.58172 3.58172 0 8 0H40C44.4183 0 48 3.58172 48 8V40C48 44.4183 44.4183 48 40 48H8C3.58172 48 0 44.4183 0 40V8Z" fill="#E8E7FF"/>
<path d="M15.5535 35.1115V30.8599H19.8052" stroke="#7526DA" stroke-width="1.5" stroke-linecap="round" stroke-linejoin="round"/>
<path d="M34.9238 22.0258C35.9817 27.6515 32.539 33.2289 26.9182 34.7349C22.6163 35.8875 18.2268 34.337 15.5535 31.1244" stroke="#7526DA" stroke-width="1.5" stroke-linecap="round" stroke-linejoin="round"/>
<path d="M13.1905 26.0885C12.1326 20.4628 15.5753 14.8855 21.1961 13.3794C25.4977 12.2268 29.8868 13.7771 32.5603 16.9892" stroke="#7526DA" stroke-width="1.5" stroke-linecap="round" stroke-linejoin="round"/>
<path d="M32.5605 13.0024V17.2541H28.3087" stroke="#7526DA" stroke-width="1.5" stroke-linecap="round" stroke-linejoin="round"/>
<path d="M24.057 23.1999C25.2405 23.1999 26.1999 22.2405 26.1999 21.057C26.1999 19.8736 25.2405 18.9142 24.057 18.9142C22.8736 18.9142 21.9142 19.8736 21.9142 21.057C21.9142 22.2405 22.8736 23.1999 24.057 23.1999Z" stroke="#7526DA" stroke-width="1.5"/>
<path d="M20.1279 28.3428C20.7893 26.8292 22.2996 25.7714 24.057 25.7714C25.8145 25.7714 27.3248 26.8292 27.9861 28.3428" stroke="#7526DA" stroke-width="1.5" stroke-linecap="round"/>
</svg>
